{
    "asset" : {
        "generator" : "Khronos glTF Blender I/O v1.8.19",
        "version" : "2.0"
    },
    "scene" : 0,
    "scenes" : [
        {
            "name" : "Scene",
            "nodes" : [
                6
            ]
        }
    ],
    "nodes" : [
        {
            "mesh" : 0,
            "name" : "Cap_1",
            "translation" : [
                101.31046295166016,
                273.0443420410156,
                -641.3870849609375
            ]
        },
        {
            "mesh" : 1,
            "name" : "Cap_2",
            "translation" : [
                101.31046295166016,
                273.0443420410156,
                -641.3870849609375
            ]
        },
        {
            "children" : [
                0,
                1
            ],
            "mesh" : 2,
            "name" : "Extrude_R",
            "translation" : [
                -405.581298828125,
                -273.0443420410156,
                -513.9601440429688
            ]
        },
        {
            "mesh" : 3,
            "name" : "Cap_1_2",
            "translation" : [
                709.851806640625,
                273.04400634765625,
                -2285.5244140625
            ]
        },
        {
            "mesh" : 4,
            "name" : "Cap_2_2",
            "translation" : [
                709.851806640625,
                273.04400634765625,
                -2285.5244140625
            ]
        },
        {
            "children" : [
                3,
                4
            ],
            "mesh" : 5,
            "name" : "Extrude_S",
            "translation" : [
                -405.58099365234375,
                -273.04400634765625,
                3440.87158203125
            ]
        },
        {
            "children" : [
                2,
                5
            ],
            "name" : "logo",
            "rotation" : [
                0.7071068286895752,
                0,
                0,
                0.7071067094802856
            ],
            "scale" : [
                0.009999999776482582,
                0.009999999776482582,
                0.009999999776482582
            ],
            "translation" : [
                27.757022857666016,
                44.80277633666992,
                0
            ]
        }
    ],
    "animations" : [
        {
            "channels" : [
                {
                    "sampler" : 0,
                    "target" : {
                        "node" : 2,
                        "path" : "translation"
                    }
                },
                {
                    "sampler" : 1,
                    "target" : {
                        "node" : 2,
                        "path" : "rotation"
                    }
                },
                {
                    "sampler" : 2,
                    "target" : {
                        "node" : 2,
                        "path" : "scale"
                    }
                }
            ],
            "name" : "Extrude_R|CINEMA_4D_Main|Layer0",
            "samplers" : [
                {
                    "input" : 24,
                    "interpolation" : "LINEAR",
                    "output" : 25
                },
                {
                    "input" : 26,
                    "interpolation" : "LINEAR",
                    "output" : 27
                },
                {
                    "input" : 24,
                    "interpolation" : "LINEAR",
                    "output" : 28
                }
            ]
        },
        {
            "channels" : [
                {
                    "sampler" : 0,
                    "target" : {
                        "node" : 5,
                        "path" : "translation"
                    }
                },
                {
                    "sampler" : 1,
                    "target" : {
                        "node" : 5,
                        "path" : "rotation"
                    }
                },
                {
                    "sampler" : 2,
                    "target" : {
                        "node" : 5,
                        "path" : "scale"
                    }
                }
            ],
            "name" : "Extrude_S|CINEMA_4D_Main|Layer0",
            "samplers" : [
                {
                    "input" : 24,
                    "interpolation" : "LINEAR",
                    "output" : 29
                },
                {
                    "input" : 26,
                    "interpolation" : "LINEAR",
                    "output" : 30
                },
                {
                    "input" : 24,
                    "interpolation" : "LINEAR",
                    "output" : 31
                }
            ]
        }
    ],
    "materials" : [
        {
            "doubleSided" : true,
            "name" : "Mat.1",
            "pbrMetallicRoughness" : {}
        }
    ],
    "meshes" : [
        {
            "name" : "Mesh.001",
            "primitives" : [
                {
                    "attributes" : {
                        "POSITION" : 0,
                        "NORMAL" : 1,
                        "TEXCOORD_0" : 2
                    },
                    "indices" : 3,
                    "material" : 0
                }
            ]
        },
        {
            "name" : "Mesh.002",
            "primitives" : [
                {
                    "attributes" : {
                        "POSITION" : 4,
                        "NORMAL" : 5,
                        "TEXCOORD_0" : 6
                    },
                    "indices" : 7,
                    "material" : 0
                }
            ]
        },
        {
            "name" : "Mesh",
            "primitives" : [
                {
                    "attributes" : {
                        "POSITION" : 8,
                        "NORMAL" : 9,
                        "TEXCOORD_0" : 10
                    },
                    "indices" : 11,
                    "material" : 0
                }
            ]
        },
        {
            "name" : "Mesh.004",
            "primitives" : [
                {
                    "attributes" : {
                        "POSITION" : 12,
                        "NORMAL" : 13,
                        "TEXCOORD_0" : 14
                    },
                    "indices" : 15,
                    "material" : 0
                }
            ]
        },
        {
            "name" : "Mesh.005",
            "primitives" : [
                {
                    "attributes" : {
                        "POSITION" : 16,
                        "NORMAL" : 17,
                        "TEXCOORD_0" : 18
                    },
                    "indices" : 19,
                    "material" : 0
                }
            ]
        },
        {
            "name" : "Mesh.003",
            "primitives" : [
                {
                    "attributes" : {
                        "POSITION" : 20,
                        "NORMAL" : 21,
                        "TEXCOORD_0" : 22
                    },
                    "indices" : 23,
                    "material" : 0
                }
            ]
        }
    ],
    "accessors" : [
        {
            "bufferView" : 0,
            "componentType" : 5126,
            "count" : 74,
            "max" : [
                2647.86083984375,
                5.684341886080802e-14,
                2160.763916015625
            ],
            "min" : [
                -2628.1943359375,
                5.684341886080802e-14,
                -2160.763916015625
            ],
            "type" : "VEC3"
        },
        {
            "bufferView" : 1,
            "componentType" : 5126,
            "count" : 74,
            "type" : "VEC3"
        },
        {
            "bufferView" : 2,
            "componentType" : 5126,
            "count" : 74,
            "type" : "VEC2"
        },
        {
            "bufferView" : 3,
            "componentType" : 5123,
            "count" : 216,
            "type" : "SCALAR"
        },
        {
            "bufferView" : 4,
            "componentType" : 5126,
            "count" : 74,
            "max" : [
                2647.86083984375,
                -600,
                2160.763916015625
            ],
            "min" : [
                -2628.1943359375,
                -600,
                -2160.763916015625
            ],
            "type" : "VEC3"
        },
        {
            "bufferView" : 5,
            "componentType" : 5126,
            "count" : 74,
            "type" : "VEC3"
        },
        {
            "bufferView" : 6,
            "componentType" : 5126,
            "count" : 74,
            "type" : "VEC2"
        },
        {
            "bufferView" : 7,
            "componentType" : 5123,
            "count" : 216,
            "type" : "SCALAR"
        },
        {
            "bufferView" : 8,
            "componentType" : 5126,
            "count" : 162,
            "max" : [
                2749.171142578125,
                273.0443420410156,
                1519.3768310546875
            ],
            "min" : [
                -2526.884033203125,
                -326.9556579589844,
                -2802.15087890625
            ],
            "type" : "VEC3"
        },
        {
            "bufferView" : 9,
            "componentType" : 5126,
            "count" : 162,
            "type" : "VEC3"
        },
        {
            "bufferView" : 10,
            "componentType" : 5126,
            "count" : 162,
            "type" : "VEC2"
        },
        {
            "bufferView" : 11,
            "componentType" : 5123,
            "count" : 444,
            "type" : "SCALAR"
        },
        {
            "bufferView" : 12,
            "componentType" : 5126,
            "count" : 146,
            "max" : [
                2543.354736328125,
                1.1368683772161603e-13,
                2256.419677734375
            ],
            "min" : [
                -2642.022705078125,
                1.1368683772161603e-13,
                -2236.7587890625
            ],
            "type" : "VEC3"
        },
        {
            "bufferView" : 13,
            "componentType" : 5126,
            "count" : 146,
            "type" : "VEC3"
        },
        {
            "bufferView" : 14,
            "componentType" : 5126,
            "count" : 146,
            "type" : "VEC2"
        },
        {
            "bufferView" : 15,
            "componentType" : 5123,
            "count" : 432,
            "type" : "SCALAR"
        },
        {
            "bufferView" : 16,
            "componentType" : 5126,
            "count" : 146,
            "max" : [
                2543.354736328125,
                -600,
                2256.419677734375
            ],
            "min" : [
                -2642.022705078125,
                -600,
                -2236.7587890625
            ],
            "type" : "VEC3"
        },
        {
            "bufferView" : 17,
            "componentType" : 5126,
            "count" : 146,
            "type" : "VEC3"
        },
        {
            "bufferView" : 18,
            "componentType" : 5126,
            "count" : 146,
            "type" : "VEC2"
        },
        {
            "bufferView" : 19,
            "componentType" : 5123,
            "count" : 432,
            "type" : "SCALAR"
        },
        {
            "bufferView" : 20,
            "componentType" : 5126,
            "count" : 298,
            "max" : [
                3253.206787109375,
                273.04400634765625,
                -29.104610443115234
            ],
            "min" : [
                -1932.1707763671875,
                -326.95599365234375,
                -4522.283203125
            ],
            "type" : "VEC3"
        },
        {
            "bufferView" : 21,
            "componentType" : 5126,
            "count" : 298,
            "type" : "VEC3"
        },
        {
            "bufferView" : 22,
            "componentType" : 5126,
            "count" : 298,
            "type" : "VEC2"
        },
        {
            "bufferView" : 23,
            "componentType" : 5123,
            "count" : 876,
            "type" : "SCALAR"
        },
        {
            "bufferView" : 24,
            "componentType" : 5126,
            "count" : 2,
            "max" : [
                3.033333333333333
            ],
            "min" : [
                0.03333333333333333
            ],
            "type" : "SCALAR"
        },
        {
            "bufferView" : 25,
            "componentType" : 5126,
            "count" : 2,
            "type" : "VEC3"
        },
        {
            "bufferView" : 26,
            "componentType" : 5126,
            "count" : 91,
            "max" : [
                3.033333333333333
            ],
            "min" : [
                0.03333333333333333
            ],
            "type" : "SCALAR"
        },
        {
            "bufferView" : 27,
            "componentType" : 5126,
            "count" : 91,
            "type" : "VEC4"
        },
        {
            "bufferView" : 28,
            "componentType" : 5126,
            "count" : 2,
            "type" : "VEC3"
        },
        {
            "bufferView" : 29,
            "componentType" : 5126,
            "count" : 2,
            "type" : "VEC3"
        },
        {
            "bufferView" : 30,
            "componentType" : 5126,
            "count" : 91,
            "type" : "VEC4"
        },
        {
            "bufferView" : 31,
            "componentType" : 5126,
            "count" : 2,
            "type" : "VEC3"
        }
    ],
    "bufferViews" : [
        {
            "buffer" : 0,
            "byteLength" : 888,
            "byteOffset" : 0
        },
        {
            "buffer" : 0,
            "byteLength" : 888,
            "byteOffset" : 888
        },
        {
            "buffer" : 0,
            "byteLength" : 592,
            "byteOffset" : 1776
        },
        {
            "buffer" : 0,
            "byteLength" : 432,
            "byteOffset" : 2368
        },
        {
            "buffer" : 0,
            "byteLength" : 888,
            "byteOffset" : 2800
        },
        {
            "buffer" : 0,
            "byteLength" : 888,
            "byteOffset" : 3688
        },
        {
            "buffer" : 0,
            "byteLength" : 592,
            "byteOffset" : 4576
        },
        {
            "buffer" : 0,
            "byteLength" : 432,
            "byteOffset" : 5168
        },
        {
            "buffer" : 0,
            "byteLength" : 1944,
            "byteOffset" : 5600
        },
        {
            "buffer" : 0,
            "byteLength" : 1944,
            "byteOffset" : 7544
        },
        {
            "buffer" : 0,
            "byteLength" : 1296,
            "byteOffset" : 9488
        },
        {
            "buffer" : 0,
            "byteLength" : 888,
            "byteOffset" : 10784
        },
        {
            "buffer" : 0,
            "byteLength" : 1752,
            "byteOffset" : 11672
        },
        {
            "buffer" : 0,
            "byteLength" : 1752,
            "byteOffset" : 13424
        },
        {
            "buffer" : 0,
            "byteLength" : 1168,
            "byteOffset" : 15176
        },
        {
            "buffer" : 0,
            "byteLength" : 864,
            "byteOffset" : 16344
        },
        {
            "buffer" : 0,
            "byteLength" : 1752,
            "byteOffset" : 17208
        },
        {
            "buffer" : 0,
            "byteLength" : 1752,
            "byteOffset" : 18960
        },
        {
            "buffer" : 0,
            "byteLength" : 1168,
            "byteOffset" : 20712
        },
        {
            "buffer" : 0,
            "byteLength" : 864,
            "byteOffset" : 21880
        },
        {
            "buffer" : 0,
            "byteLength" : 3576,
            "byteOffset" : 22744
        },
        {
            "buffer" : 0,
            "byteLength" : 3576,
            "byteOffset" : 26320
        },
        {
            "buffer" : 0,
            "byteLength" : 2384,
            "byteOffset" : 29896
        },
        {
            "buffer" : 0,
            "byteLength" : 1752,
            "byteOffset" : 32280
        },
        {
            "buffer" : 0,
            "byteLength" : 8,
            "byteOffset" : 34032
        },
        {
            "buffer" : 0,
            "byteLength" : 24,
            "byteOffset" : 34040
        },
        {
            "buffer" : 0,
            "byteLength" : 364,
            "byteOffset" : 34064
        },
        {
            "buffer" : 0,
            "byteLength" : 1456,
            "byteOffset" : 34428
        },
        {
            "buffer" : 0,
            "byteLength" : 24,
            "byteOffset" : 35884
        },
        {
            "buffer" : 0,
            "byteLength" : 24,
            "byteOffset" : 35908
        },
        {
            "buffer" : 0,
            "byteLength" : 1456,
            "byteOffset" : 35932
        },
        {
            "buffer" : 0,
            "byteLength" : 24,
            "byteOffset" : 37388
        }
    ],
    "buffers" : [
        {
            "byteLength" : 37412,
            "uri" : "data:application/octet-stream;base64,"
        }
    ]
}
