<?xml version="1.0" encoding="utf-8"?>
<!-- Generator: Adobe Illustrator 24.3.0, SVG Export Plug-In . SVG Version: 6.00 Build 0)  -->
<svg version="1.1" id="Calque_1" xmlns="http://www.w3.org/2000/svg" xmlns:xlink="http://www.w3.org/1999/xlink" x="0px" y="0px"
	 viewBox="0 0 24 24" style="enable-background:new 0 0 24 24;" xml:space="preserve">
<path d="M20.6,7.8c-0.1,2.1-0.9,5.4-4.1,8.6c-3.2,3.2-6.5,4-8.6,4.1c-0.1,0-0.1,0-0.2,0c0,0,0,0,0,0c-1.4,0-2.7-0.6-3.7-1.6
	c-0.6-0.6-0.6-1.6,0-2.2l2.5-2.5c0.3-0.3,0.7-0.4,1.1-0.4c0.4,0,0.8,0.2,1.1,0.4l1,1c0.1,0,0.1,0,0.2,0c0.8,0,2.3-0.2,3.9-1.8
	c1.8-1.8,1.8-3.6,1.8-4.1l-1-1c-0.6-0.6-0.6-1.6,0-2.2l2.5-2.5c0.3-0.3,0.7-0.4,1.1-0.4c0.4,0,0.8,0.2,1.1,0.4
	C20.1,4.9,20.6,6.3,20.6,7.8z"/>
</svg>
