<svg width="48" height="53" viewBox="0 0 48 53" fill="none" xmlns="http://www.w3.org/2000/svg">
<path fill-rule="evenodd" clip-rule="evenodd" d="M24 0.166504C30.1663 0.166504 36.08 2.61605 40.4402 6.97627C44.8004 11.3365 47.25 17.2502 47.25 23.4165C47.25 31.3577 42.9203 37.8573 38.3582 42.5203C36.0784 44.8243 33.5914 46.9136 30.9285 48.7616L29.828 49.5108L29.3113 49.8543L28.3374 50.4743L27.4694 51.0039L26.3947 51.6291C25.665 52.0445 24.8397 52.2629 24 52.2629C23.1603 52.2629 22.335 52.0445 21.6052 51.6291L20.5306 51.0039L19.1873 50.1772L18.6912 49.8543L17.6321 49.1491C14.7594 47.2047 12.0833 44.9845 9.64183 42.5203C5.07967 37.8522 0.75 31.3577 0.75 23.4165C0.75 17.2502 3.19955 11.3365 7.55977 6.97627C11.92 2.61605 17.8337 0.166504 24 0.166504ZM24 5.33317C19.204 5.33317 14.6044 7.23837 11.2132 10.6297C7.82187 14.0209 5.91667 18.6205 5.91667 23.4165C5.91667 29.415 9.20267 34.6798 13.3334 38.9062C15.1098 40.7039 17.0295 42.3541 19.0736 43.8403L20.2567 44.6825C20.6391 44.9486 21.0059 45.1966 21.3598 45.4265L22.3673 46.0723L23.2534 46.6123L24 47.0488L25.1754 46.3539L26.1235 45.7598C26.6272 45.4394 27.1698 45.0803 27.7432 44.6825L28.9264 43.8403C30.9705 42.3541 32.8902 40.7039 34.6666 38.9062C38.7973 34.6824 42.0833 29.415 42.0833 23.4165C42.0833 18.6205 40.1781 14.0209 36.7868 10.6297C33.3956 7.23837 28.796 5.33317 24 5.33317ZM24 13.0832C26.7406 13.0832 29.3689 14.1719 31.3068 16.1097C33.2446 18.0476 34.3333 20.6759 34.3333 23.4165C34.3333 26.1571 33.2446 28.7854 31.3068 30.7233C29.3689 32.6611 26.7406 33.7498 24 33.7498C21.2594 33.7498 18.6311 32.6611 16.6932 30.7233C14.7554 28.7854 13.6667 26.1571 13.6667 23.4165C13.6667 20.6759 14.7554 18.0476 16.6932 16.1097C18.6311 14.1719 21.2594 13.0832 24 13.0832ZM24 18.2498C22.6297 18.2498 21.3156 18.7942 20.3466 19.7631C19.3777 20.7321 18.8333 22.0462 18.8333 23.4165C18.8333 24.7868 19.3777 26.1009 20.3466 27.0699C21.3156 28.0388 22.6297 28.5832 24 28.5832C25.3703 28.5832 26.6844 28.0388 27.6534 27.0699C28.6223 26.1009 29.1667 24.7868 29.1667 23.4165C29.1667 22.0462 28.6223 20.7321 27.6534 19.7631C26.6844 18.7942 25.3703 18.2498 24 18.2498Z" fill="#EB5E28"/>
</svg>
