<svg width="300" height="300" viewBox="0 0 300 300" fill="none" xmlns="http://www.w3.org/2000/svg">
<path d="M64.4829 206.201C48.8985 205.775 37.4219 202.564 29.4561 196.335C21.4518 189.952 17.5742 172.594 18.0371 162.729C24.5377 166.547 33.2173 167.514 38.0392 173.317C39.968 175.251 45.2722 183.395 49.5155 186.219C53.778 188.927 59.3717 190.378 66.4116 190.61C73.7023 190.881 79.296 189.991 83.0185 187.863C86.7796 185.561 88.4384 182.389 88.0526 178.404C87.7247 174.884 86.606 172.272 84.7158 170.493C82.8642 168.597 80.2217 167.185 76.7692 166.314C73.3167 165.328 68.9383 164.515 63.5763 163.877C57.7129 162.968 52.3121 161.923 47.3938 160.744C42.4369 159.409 38.1742 157.649 34.606 155.501C30.9992 153.296 28.2988 150.511 26.5822 147.184C24.9235 143.915 24.692 140.123 26.0615 135.907C28.2217 130.819 31.8479 126.602 36.2454 122.714C40.1608 118.149 44.0957 113.72 48.3389 109.657C52.505 105.421 57.8672 102.616 64.8493 101.804C72.1786 101.669 78.6788 103.468 84.2529 106.737C89.8656 109.89 107.191 116.113 108.132 125.126C105.541 129.789 106.08 126.666 104.525 131.329C103.57 134.196 101.417 136.511 101.935 139.101C105.767 158.263 91.5725 133.402 86.9094 129.257C81.7283 125.63 83.8007 127.185 80.692 125.112C77.5833 123.04 76.692 122.366 74.1846 121.244C71.6773 120.103 68.8033 119.639 65.5244 119.832C60.4711 120.277 56.6712 121.863 53.9903 124.475C51.29 126.97 49.7469 129.91 49.419 133.334C49.149 136.023 49.6891 138.131 51.0971 139.737C52.5244 141.342 54.8775 142.58 58.0793 143.47C61.3196 144.205 65.4859 144.921 70.5585 145.52C75.5347 146.023 80.299 146.758 84.8315 147.725C89.5377 148.673 93.7233 150.066 97.4265 152C101.13 153.877 104.139 156.662 106.511 160.357C109.018 163.974 112.297 168.532 112.297 175.464C112.297 186.908 106.511 194.645 104.833 201.442C94.8614 205.775 80.6651 207.071 64.4829 206.201Z" fill="#EB5E28"/>
<path d="M252.099 222C246.435 222 241.308 221.15 236.681 219.488C232.054 217.671 228.098 215.236 224.777 212.125C221.455 208.898 218.901 205.226 217.116 201.11C216.681 201.11 216.239 201.11 215.791 201.11C215.701 207.397 215.605 213.697 215.503 220.01C207.874 219.997 185.877 204.621 178.312 204.608C217.116 192.047 194.632 79.9662 174.472 79.9662C182.6 79.9533 193.262 79 202.619 79C207.317 97.9765 210.76 116.985 212.949 136.026C213.384 136.026 213.82 136.026 214.255 136.026C216.175 129.823 219.977 124.76 225.794 120.876C231.9 116.972 239.561 115.001 248.662 114.924C255.651 114.866 261.929 115.929 267.286 118.151C272.72 120.199 276.867 123.369 279.383 127.639C281.341 131.813 281.149 137.089 279.171 143.659C277.367 150.423 275.562 159.022 274.64 169.457C276.003 182.984 279.114 193.033 281.552 200.202C283.376 207.12 281.591 212.396 275.965 216.145C269.475 219.971 261.219 221.981 252.099 222ZM241.615 202.405C246.684 202.463 251.004 201.284 254.403 198.927C257.629 196.453 259.683 192.84 260.662 188.009C261.545 183.023 261.507 176.626 260.969 168.877C260.931 162.964 260.643 157.863 259.952 153.611C259.414 149.283 258.301 145.688 256.515 142.848C254.633 140.026 252.176 137.997 249.142 136.76C246.166 135.369 242.71 134.693 238.851 134.731C233.167 134.77 228.463 136.161 224.738 138.886C221.109 141.63 218.421 145.109 216.674 149.379C215.023 153.65 214.312 158.23 214.524 163.157C214.664 166.778 214.805 170.398 214.946 174.018C215.119 178.771 216.213 183.313 218.249 187.583C220.399 191.835 223.413 195.39 227.311 198.25C231.266 200.975 236.028 202.366 241.615 202.405Z" fill="#EB5E28"/>
<path d="M116.442 203.421C109.785 200.758 109.189 204.975 114.931 195.131C116.274 190.845 118.748 185.474 119.551 180.105C120.587 170.814 116.606 165.08 112.816 154.718C107.94 146.902 109.189 137.764 111.261 129.981C114.208 118.915 117.329 110.112 123.639 103.805C130.657 97.7302 139.358 94.4412 149.588 93.203C160.048 92.1583 166.665 96.9477 176.876 106.621C188.177 119.293 188.904 134.18 190.261 146.31C191.619 158.441 187.45 171.809 187.508 180.071C186.781 187.732 182.88 194.155 175.365 199.534C158.672 181.115 144.387 163.316 129.586 146.31C128.668 151.689 128.668 156.874 129.166 161.943C129.433 167.147 129.701 172.119 130.122 176.84C130.275 181.58 130.963 185.759 132.531 189.28C134.73 193.188 137.656 195.219 141.136 195.509C144.846 195.78 148.479 194.561 151.787 192.008C156.166 196.748 160.737 201.41 165.536 206.073C160.201 208.607 154.464 210.174 148.536 211.2C142.857 212.709 137.465 213.521 132.397 213.192C127.406 212.631 119.033 204.457 116.442 203.421ZM132.741 134.238C132.512 132.864 132.263 131.413 132.034 129.981C145.821 142.48 157.83 156.738 169.762 172.08C168.711 172.158 167.697 172.274 166.664 172.37C169.934 168.056 171.732 163.413 172.191 158.441C172.822 153.333 172.516 148.032 171.216 142.576C169.992 137.159 167.888 132.09 164.714 127.486C161.1 122.649 157.084 119.766 152.743 118.915C148.537 118.335 144.483 119.515 140.811 122.165C137.388 124.855 134.673 128.975 132.741 134.238Z" fill="#EB5E28"/>
<path d="M103.706 148.545C100.729 141.663 105.63 130.04 108.131 125.126C104.172 124.756 103.315 124.28 100.123 124.247C89.2064 124.136 93.6938 135.094 97.1231 142.071C100.198 147.152 107.336 156.938 103.706 148.545Z" fill="#EB5E28"/>
</svg>
