<svg width="272" height="147" viewBox="0 0 272 147" fill="none" xmlns="http://www.w3.org/2000/svg">
<path d="M47.7831 130.759C31.7628 130.322 19.9652 127.021 11.7766 120.618C3.54833 114.056 -0.437756 96.2122 0.0380943 86.0711C6.7206 89.9957 15.6429 90.9899 20.5998 96.9553C22.5825 98.9437 28.0351 107.315 32.397 110.218C36.7788 113.002 42.5289 114.493 49.7658 114.732C57.2605 115.01 63.0106 114.096 66.8372 111.908C70.7035 109.542 72.4087 106.281 72.0121 102.185C71.6751 98.5659 70.5251 95.8815 68.582 94.0521C66.6786 92.1034 63.9622 90.6519 60.4131 89.7571C56.8641 88.7429 52.3631 87.9078 46.8512 87.2516C40.8238 86.317 35.2719 85.2433 30.216 84.0303C25.1205 82.6583 20.7385 80.8488 17.0705 78.6416C13.3628 76.3748 10.5869 73.5114 8.82229 70.0913C7.11716 66.7308 6.87923 62.8334 8.28695 58.4986C10.5076 53.2689 14.2352 48.9341 18.7558 44.9373C22.7807 40.2446 26.8256 35.691 31.1876 31.5153C35.4702 27.1605 40.9824 24.2773 48.1598 23.4421C55.6941 23.303 62.3761 25.1522 68.1061 28.5127C73.8758 31.7539 95.337 35.6848 93.2065 45.2718C90.5435 50.0652 90.5435 49 88.9457 53.7935C87.9636 56.7398 85.75 59.1196 86.2826 61.7826C91.7979 89.3591 75.6305 55.9239 70.837 51.6631C65.5109 47.9348 67.6413 49.5326 64.4457 47.4022C61.25 45.2718 60.3338 44.5794 57.7562 43.4261C55.1787 42.2529 52.2244 41.7757 48.8538 41.9745C43.6591 42.4319 39.753 44.0624 36.997 46.7468C34.2212 49.3119 32.635 52.3344 32.2979 55.8539C32.0203 58.6179 32.5755 60.7853 34.0229 62.4357C35.4901 64.0861 37.9091 65.3587 41.2004 66.2734C44.5313 67.029 48.8142 67.7648 54.0287 68.3812C59.1441 68.8982 64.0416 69.6538 68.701 70.648C73.5388 71.6224 77.8414 73.0541 81.6482 75.0425C85.455 76.9713 88.5482 79.8347 90.9869 83.6326C93.5645 87.351 96.9351 92.0365 96.9351 99.1625C96.9351 110.927 90.9869 118.881 89.262 125.867C79.0113 130.322 64.418 131.654 47.7831 130.759Z" fill="#EB5E28"/>
<path d="M240.646 147C234.824 147 229.554 146.126 224.797 144.418C220.04 142.55 215.974 140.047 212.56 136.849C209.145 133.532 206.52 129.757 204.685 125.526C204.237 125.526 203.783 125.526 203.323 125.526C203.231 131.989 203.132 138.465 203.027 144.954C195.184 144.941 172.572 129.135 164.795 129.122C204.685 116.209 181.572 0.993243 160.848 0.993243C169.203 0.98 180.164 0 189.783 0C194.612 19.5073 198.151 39.0477 200.402 58.6212C200.849 58.6212 201.296 58.6212 201.744 58.6212C203.717 52.2446 207.625 47.04 213.606 43.0472C219.882 39.0345 227.758 37.0082 237.113 36.9288C244.298 36.8692 250.752 37.9618 256.259 40.2462C261.844 42.3519 266.107 45.6097 268.693 49.9999C270.706 54.2907 270.509 59.7138 268.476 66.4678C266.621 73.4205 264.765 82.2604 263.818 92.9874C265.219 106.893 268.417 117.223 270.923 124.592C272.798 131.704 270.963 137.127 265.18 140.981C258.509 144.914 250.021 146.98 240.646 147ZM229.87 126.857C235.08 126.917 239.521 125.705 243.015 123.281C246.331 120.739 248.442 117.024 249.449 112.058C250.357 106.933 250.318 100.357 249.765 92.3915C249.725 86.3128 249.429 81.0685 248.719 76.6982C248.166 72.2485 247.021 68.5536 245.186 65.6335C243.252 62.7332 240.725 60.6474 237.607 59.3761C234.547 57.9458 230.995 57.2505 227.027 57.2903C221.185 57.33 216.349 58.7603 212.52 61.5612C208.79 64.382 206.027 67.9577 204.231 72.3478C202.533 76.738 201.803 81.4459 202.02 86.5115C202.165 90.2328 202.309 93.9542 202.454 97.6755C202.632 102.562 203.757 107.231 205.849 111.621C208.06 115.991 211.158 119.646 215.165 122.586C219.231 125.387 224.126 126.817 229.87 126.857Z" fill="#EB5E28"/>
<path d="M101.196 127.901C94.3521 125.163 93.7398 129.498 99.6426 119.379C101.023 114.973 103.567 109.452 104.392 103.933C105.457 94.3821 101.364 88.4875 97.4683 77.8353C92.4558 69.8005 93.7396 60.4072 95.8701 52.407C98.8997 41.031 102.108 31.9819 108.594 25.4984C115.808 19.2536 124.753 15.8726 135.269 14.5998C146.021 13.5258 152.823 18.4493 163.32 28.3933C174.937 41.42 175.684 56.7227 177.08 69.1925C178.476 81.6623 174.19 95.405 174.249 103.897C173.502 111.773 169.492 118.376 161.767 123.905C144.607 104.971 129.922 86.6741 114.708 69.1925C113.764 74.7214 113.764 80.0514 114.275 85.2621C114.55 90.612 114.826 95.7232 115.258 100.576C115.415 105.448 116.123 109.744 117.735 113.364C119.995 117.381 123.003 119.47 126.581 119.768C130.394 120.046 134.129 118.793 137.53 116.168C142.031 121.041 146.729 125.834 151.663 130.627C146.179 133.232 140.282 134.843 134.188 135.897C128.35 137.448 122.806 138.284 117.597 137.946C112.467 137.369 103.859 128.966 101.196 127.901ZM117.951 56.7824C117.715 55.3703 117.46 53.8787 117.224 52.407C131.396 65.2547 143.742 79.9122 156.007 95.6834C154.926 95.763 153.884 95.8823 152.823 95.9818C156.184 91.5467 158.032 86.7736 158.504 81.6624C159.153 76.4119 158.838 70.9626 157.501 65.3541C156.243 59.7855 154.081 54.5748 150.818 49.8414C147.103 44.8694 142.975 41.9061 138.513 41.031C134.188 40.4344 130.021 41.6475 126.246 44.3722C122.728 47.1367 119.936 51.3728 117.951 56.7824Z" fill="#EB5E28"/>
</svg>
