<svg width="47" height="47" viewBox="0 0 47 47" fill="none" xmlns="http://www.w3.org/2000/svg">
<path d="M40.0419 40.0518H33.082V29.1457C33.082 26.5451 33.0293 23.1984 29.4552 23.1984C25.8265 23.1984 25.2722 26.0283 25.2722 28.9538V40.0518H18.3123V17.625H24.998V20.6818H25.0881C26.0224 18.9193 28.294 17.059 31.6877 17.059C38.7398 17.059 40.044 21.7004 40.044 27.7418L40.0419 40.0518ZM10.4516 14.5563C8.21128 14.5563 6.41158 12.7429 6.41158 10.5123C6.41158 8.28375 8.21324 6.47229 10.4516 6.47229C12.6841 6.47229 14.4936 8.28375 14.4936 10.5123C14.4936 12.7429 12.6822 14.5563 10.4516 14.5563ZM13.9414 40.0518H6.96187V17.625H13.9414V40.0518ZM43.5238 0H3.4682C1.551 0 0 1.51575 0 3.38596V43.6142C0 45.4861 1.551 47 3.4682 47H43.5181C45.4333 47 47 45.4861 47 43.6142V3.38596C47 1.51575 45.4333 0 43.5181 0H43.5238Z" fill="white"/>
</svg>
