<svg width="56" height="56" viewBox="0 0 56 56" fill="none" xmlns="http://www.w3.org/2000/svg">
<path d="M50.4 28C50.4 15.6288 40.3712 5.6 28 5.6C15.6288 5.6 5.6 15.6288 5.6 28C5.6 40.3712 15.6288 50.4 28 50.4C32.597 50.4 36.8707 49.0151 40.4267 46.6399L43.5333 51.2999C39.0886 54.269 33.7464 56 28 56C12.536 56 0 43.4638 0 28C0 12.536 12.536 0 28 0C43.4638 0 56 12.536 56 28V32.2C56 37.6124 51.6124 42 46.2 42C42.8282 42 39.8541 40.297 38.0906 37.7045C35.5438 40.3522 31.9642 42 28 42C20.268 42 14 35.7319 14 28C14 20.268 20.268 14 28 14C31.1522 14 34.0612 15.0419 36.4014 16.8H42V32.2C42 34.5195 43.8805 36.4 46.2 36.4C48.5195 36.4 50.4 34.5195 50.4 32.2V28ZM28 19.6C23.3607 19.6 19.6 23.3607 19.6 28C19.6 32.6393 23.3607 36.4 28 36.4C32.6393 36.4 36.4 32.6393 36.4 28C36.4 23.3607 32.6393 19.6 28 19.6Z" fill="#EB5E28"/>
</svg>
