<svg width="57" height="57" viewBox="0 0 57 57" fill="none" xmlns="http://www.w3.org/2000/svg">
<g clip-path="url(#clip0_975_135)">
<path d="M43.2968 0.183114L43.2672 7.12871C43.2465 11.9946 44.2527 15.9622 46.2856 19.0317C48.3186 22.1012 51.1641 23.6394 54.8222 23.6462L55.9382 23.651L55.9 32.6109L54.784 32.6062C51.126 32.5906 48.2675 34.1045 46.2085 37.1478C44.1495 40.1912 43.1096 44.1501 43.0889 49.0247L43.0592 55.9834L35.0612 55.9493L35.0953 47.9311C35.0422 44.4816 35.8013 41.088 37.2759 38.1824C38.6668 35.5048 40.7985 33.5819 43.251 32.7925L0.0987936 32.6088L0.13889 23.191L43.2911 23.3747C40.8256 22.5484 38.7048 20.56 37.3626 17.8165C35.9032 14.9425 35.1714 11.572 35.2647 8.15416L35.2988 0.149062L43.2968 0.183114Z" fill="#EB5E28"/>
</g>
<defs>
<clipPath id="clip0_975_135">
<rect width="55.8007" height="55.8007" fill="white" transform="translate(55.8003 56.0376) rotate(-179.756)"/>
</clipPath>
</defs>
</svg>
