<svg width="47" height="47" viewBox="0 0 47 47" fill="none" xmlns="http://www.w3.org/2000/svg">
<path d="M23.5 0C10.5162 0 0 10.7822 0 24.0944C0 34.7562 6.72687 43.7615 16.0681 46.954C17.2431 47.1648 17.6837 46.442 17.6837 45.8095C17.6837 45.2372 17.6544 43.3398 17.6544 41.3219C11.75 42.4363 10.2225 39.8461 9.75249 38.4908C9.48812 37.7981 8.34249 35.6597 7.34374 35.0875C6.52124 34.6357 5.34625 33.5213 7.31437 33.4912C9.16499 33.4611 10.4869 35.2381 10.9275 35.9609C13.0425 39.6052 16.4206 38.5812 17.7719 37.9487C17.9775 36.3826 18.5944 35.3284 19.27 34.7261C14.0412 34.1237 8.57749 32.0456 8.57749 22.8295C8.57749 20.2092 9.48812 18.0407 10.9862 16.3541C10.7512 15.7517 9.92874 13.282 11.2212 9.96906C11.2212 9.96906 13.1894 9.33658 17.6837 12.4387C19.5638 11.8966 21.5613 11.6256 23.5588 11.6256C25.5563 11.6256 27.5538 11.8966 29.4338 12.4387C33.9281 9.30646 35.8963 9.96906 35.8963 9.96906C37.1888 13.282 36.3663 15.7517 36.1313 16.3541C37.6294 18.0407 38.54 20.1791 38.54 22.8295C38.54 32.0757 33.0469 34.1237 27.8181 34.7261C28.67 35.479 29.4044 36.9247 29.4044 39.1835C29.4044 42.4062 29.375 44.9963 29.375 45.8095C29.375 46.442 29.8156 47.1949 30.9906 46.954C40.5563 43.6429 46.9974 34.4461 47 24.0944C47 10.7822 36.4838 0 23.5 0Z" fill="white"/>
</svg>
